<svg xmlns="http://www.w3.org/2000/svg" width="1221" height="280" viewBox="0 0 1221 280"><defs><clipPath id="xoyma"><path d="M1221.364 131.965A62 62 0 0 0 1160.958 56H119.945a62 62 0 0 0-61.096 72.553l17.139 99.222c5.186 30.024 31.418 51.83 61.883 51.442l1003.887-12.764c28.564-.364 53.183-20.197 59.618-48.03z"/></clipPath><clipPath id="xoymb"><path d="M863.13 122.16h313.08v192.719H863.13z"/></clipPath><clipPath id="xoymc"><path d="M1175.97 124.27h3.5v4.583h-3.5z"/></clipPath><clipPath id="xoymd"><path d="M850.503 353.23h4.274v4.583h-4.274z"/></clipPath><clipPath id="xoyme"><path d="M858.15 187.05h228.706v172.946H858.15z"/></clipPath><clipPath id="xoymf"><path d="M81 554.13h18.13v18.03H81z"/></clipPath><clipPath id="xoymg"><path d="M224.19 628.1h12.6v11.902h-12.6z"/></clipPath><clipPath id="xoymh"><path d="M217.17 464.17h40.904v39.461H217.17z"/></clipPath><clipPath id="xoymi"><path d="M0 .36h11.14v11.691H0z"/></clipPath><clipPath id="xoymj"><path d="M64.25 148.87h11.975v12.131H64.25z"/></clipPath></defs><g><g><g><path fill="#0c39f8" d="M1221.364 131.965A62 62 0 0 0 1160.958 56H119.945a62 62 0 0 0-61.096 72.553l17.139 99.222c5.186 30.024 31.418 51.83 61.883 51.442l1003.887-12.764c28.564-.364 53.183-20.197 59.618-48.03z"/></g><g clip-path="url(#xoyma)"><g><path fill="#ffe030" d="M881.385 306.857c.032 0 .064-.036.084-.104.024-.064-.02-.12-.132-.156-.324-.112-.564.072-.812.236.06.212.108.604.168.604.364.012.512-.32.692-.58"/></g><g><path fill="#ffe030" d="M933.596 251.359c.66.36.876-.084 1.06-.588l-.252-.26c-.412.208-.84.404-1.06.852l.124-.016z"/></g><g><path fill="#ffe030" d="M1117.982 150.312c.092.004.256-.108.276-.204.06-.188-.064-.324-.272-.42-.08.076-.196.152-.236.256-.068.192.012.364.232.368"/></g><g><path fill="#ffe030" d="M976.744 231.664c.096.296.344.304.596.292.088-.1.18-.196.272-.292.376-.18.744-.352 1.112-.528.02-.076.04-.156.064-.236.156-.136.312-.268.468-.4-.08-.152-.164-.304-.248-.46-.196.168-.388.332-.588.492l-1.116.852c-.188.092-.372.188-.56.28"/></g><g><path fill="#ffe030" d="M977.826 228.542c.276-.26.556-.532.832-.8.004-.088.004-.172.008-.264-.192-.008-.384-.02-.576-.032-.256.3-.508.6-.756.9.104.208.288.228.492.196"/></g><g><g/><g clip-path="url(#xoymb)"><path fill="#ffe030" d="M1172.244 128.067c1.394.509 3.916-.787 3.966 1.785.035 1.94-2.196.813-3.284 1.391-1.53.818-3.134 1.516-4.738 2.2-.812.348-1.61.976-2.602.523-.541 1.49-1.664 2.328-3.143 2.767a1.924 1.924 0 0 1-1.264.608.374.374 0 0 1-.125-.065c-.25.284-.491.569-.742.848-.637.753.005 1.321.27 1.95.05 0 .101.01.156.014.341-.339.702-.508 1.108-.035.426.394-.145 1.317.772 1.451.316.529.747.763 1.359.504.566.26.536.648.245 1.097-.055.035-.11.05-.165.075.085.05.186.1.276.15.075-.076.145-.15.215-.22.261-.17.517-.23.792-.13-.165-.803-.616-1.665.16-2.313.041-.105.086-.215.106-.33.176-.03.27-.134.291-.314.642-.16 1.288-.319 1.925-.488 1.935.872 1.233 1.54-.16 2.159.075.663.15 1.331.215 1.984-.356.922-1.022 1.51-1.96 1.795-.256.828-.486 1.675-1.273 2.204l-.1-.02c.14 2.034-1.78.917-2.517 1.62-.487.514-.983 1.032-1.47 1.546-.626-.254-.852-.648-.466-1.272.216-.478.462-.942 1.028-1.082a2 2 0 0 1-.075-.448c.526-.35 1.349-.27 1.634-.972-.07-.025-.145-.06-.225-.085-.467-.334-.928-.683-.913-1.346.271-.295.537-.594.802-.893.16-.264.291-.558.517-.773-.25-.074-.411-.254-.517-.488-.34.14-1.012-.364-.967.503-.12.12-.216.255-.29.404a1.313 1.313 0 0 1-.367-.224c-.667.314-1.328.628-1.985.942-.07-.115-.136-.234-.2-.349-.241.085-.477.18-.728.27.01.02.025.03.035.054-1.133 2.309-3.54 3.191-5.555 4.019-2.2.902-4.827 1.127-7.344.957-.622.224-1.249.454-1.875.673-1.404 1.69-3.545 1.965-5.39 2.807-.526.728-1.253 1.177-2.095 1.461-.697.145-1.369.434-2.106.244-.426-.648-.13-.982.256-1.276-.517.244-1.118.399-1.404.867-.356.2-.732.26-1.123.165-.577-.03-1.043.783-1.65.24-.055-.05.05-.265.15-.49-.67.16-1.338.39-1.91-.134-.004.01-.014.015-.014.025-.19.519-.602.713-1.108.778a1.846 1.846 0 0 0-.411-.105l-.04.035-.206.055c-.03.005-.055.015-.085.02.075.075.14.184.185.354-.43 1.261-1.83.753-2.587 1.41-.055.07-.11.13-.165.195v.005c-.005.005-.01.005-.015.01a2.96 2.96 0 0 1-.617.504c-.35.329-.631.703-.772 1.206-.165.05-.336.09-.496.14-.787-.558-1.349.274-2.04.319-.281.12-.567.244-.853.379a.237.237 0 0 0-.075.03c.486.648-.226.778-.647 1.007-1.068.568-2.331.693-3.289 1.496-2.25.738-4.256 1.924-6.246 3.15a1.41 1.41 0 0 1-.1-.139c-.006.01-.01.01-.01.015l.11.125c.025.124.045.244.07.369-3.104 1.36-6.122 2.941-9.41 3.889l-.176.045c-.005 0-.005.005-.005.005-.491.897-1.419 1.091-2.276 1.41-1.163 1.74-3.74 1.157-4.893 2.922-.316.13-.632.26-.953.384-.245.28-.536.534-.842.778a3.415 3.415 0 0 1-1.72.643c-.466.02-.927-.025-1.358-.25-.12.5-.487.789-.973.988-.185.02-.37 0-.546-.025-.366.16-.727.32-1.093.474a5.145 5.145 0 0 1-.03.384 1.14 1.14 0 0 1-.311.563c-.286.21-.602.264-.943.18a.545.545 0 0 1-.105-.135 26.1 26.1 0 0 0-.727.479c-.587.01-.857.468-1.228.797-.16.115-.311.24-.472.354-.546.155-1.072.549-1.634.045.542-.434 1.078-.867 1.63-1.301.095.055.2.11.29.164.717-.334 1.42-.653 2.131-.977.05-.364.095-.718.135-1.082.261-.16.532-.314.797-.473.742-.808 1.71-1.217 2.743-1.506 1.439-.384 2.21-1.665 3.349-2.443.486-.17.972-.334 1.454-.499 1.73-1.097 3.454-2.194 5.184-3.295.927-.245 1.133-1.227 1.79-1.75 1.268-1.008 2.526-2.02 3.795-3.027-.046-.06-.09-.11-.126-.184.487-1.446 2.036-1.656 3.003-2.533 1.544-.793 3.028-1.69 4.497-2.603l-1.403.514c-.572-.105-1.138-.215-1.71-.324-1.273.334-2.391 1.211-3.805 1.032-.226.124-.456.25-.692.374-.165.583-1.138.593-.998 1.396-.115.114-.23.24-.346.359-.44-.274-.902-.474-1.444-.42-.24.1-.49.205-.742.305l-.14-.005-.13.065c-1.574.947-3.605.743-5.079 1.934-.05.015-.095.03-.14.05 0 .03.005.065.005.1 0 .21-.005.424-.005.638-.802.35-1.6.693-2.402 1.042-.531-.025-.962.21-1.388.469a7.07 7.07 0 0 1-.196-.04c-.747.409-1.499.828-2.256 1.236l-.953.12c-.16.17-.31.34-.46.514-.196.055-.392.114-.592.174-.136.11-.256.215-.386.314-.898-.364-1.62.15-2.377.474-.566.244-1.098.643-1.775.518-.115.105-.225.205-.345.31-.858.503-1.745.947-2.728 1.146-.817.668-1.744 1.082-2.762 1.347-1.805 1.027-3.54 2.168-5.565 2.757l.04-.155c-.05.03-.105.065-.15.095l.11.06-.06.608c-.411.194-.772.518-1.279.454.045-.055.096-.12.146-.175a.333.333 0 0 0-.146.175c-.907.463-1.694 1.181-2.757 1.34-.01.09-.04.16-.095.235-1.219.878-2.432 1.755-3.971 2.01-.02 0-.045-.006-.07-.01.075.254.145.503.215.757-.686.629-1.348 1.292-2.316 1.491-.832.07-.536-.688-.782-1.052-.33.2-.677.409-1.018.613-.055.13-.125.24-.205.324a4.12 4.12 0 0 1 .672-.154c.38.04.767.08.666.628-.25.214-.5.419-.757.638-.336.115-.676.23-1.022.344-.467.434-1.048.334-1.615.36-.626 1.395-1.704 2.198-3.223 2.397-.371.42-.737.828-1.103 1.237a3.647 3.647 0 0 1-1.324 1.062.915.915 0 0 1-.286 0c-.165.135-.32.264-.486.404-1.183.478-2.1 1.456-3.354 1.795a.444.444 0 0 0-.055.239c-2.19 1.765-4.542 3.266-7.22 4.203-1.764.858-3.283 2.154-5.163 2.802-3.008 1.95-6.016 3.889-9.02 5.834a8.89 8.89 0 0 1-2.712 1.725h-.01c-2.486 1.91-5.334 3.21-8.036 4.741-2.718 2.034-5.951 3.071-8.93 4.602-.105.09-.2.19-.3.28-.928.692-1.86 1.38-2.798 2.073-.366.474-.807.858-1.398 1.042a.353.353 0 0 1-.096.215c-.32.045-.631.085-.957.12-.266.304-.617.299-.973.299.035.334-.16.523-.446.653-.697.468-1.374.932-2.065 1.396-.417.658-1.139.947-1.755 1.356-.682.234-1.504.1-2.036.733-.11.115-.23.23-.34.344-.311.174-.627.28-.993.17-.05-.026-.095-.07-.146-.105-.295.214-.596.428-.902.643-.26.374-.587.658-1.083.648v.005c-.145.204-.29.399-.431.608-.697-.055-1.158.404-1.65.773-.4.718-.972 1.132-1.85.987.231-.259.532-.473.677-.768.311-.618.13-.877-.571-.588-.607-.344-.065-.648.035-.962.135-.254.366-.28.617-.23-.056-.294.185-.428.396-.578-.156-.05-.311-.12-.427-.264 0-.01-.005-.015-.01-.025-.2.12-.4.23-.606.344-.015.1-.02.2-.02.29-.441.258-.888.518-1.329.767-.37.484-.717.982-1.414 1.032v-.698c.266-.28.537-.558.968-.369a.723.723 0 0 1-.035-.399c.095-.154.21-.299.326-.429a3.84 3.84 0 0 0-.436.33c-.296.224-.537.508-.793.772-.466.454-1.012.624-1.639.589.005.025.01.06-.01.084-.035.06-.075.1-.11.1-.326.15-.652.294-.988.449-.521.483-.907 1.152-1.694 1.301-.386.334-.767.653-1.154.982-.205.03-.416.07-.621.105-.782.873-1.895 1.281-2.813 1.97-.275-.006-.566-.01-.852-.015a.973.973 0 0 1-.02.204c-.737.803-1.79 1.152-2.637 1.8-.18.115-.361.23-.537.354.266.478.552.952-.08 1.466-.586.319-1.173.638-1.77.957-.35.23-.701.469-1.052.708a4.59 4.59 0 0 1-1.6 1.102h-.005c-.817.583-1.94.698-2.536 1.62l-.657.075c-1.068.603-2.056 1.301-2.823 2.274-.556.269-1.123.538-1.674.812-.467.354-.923.718-1.374 1.072-.541.045-.792.758-1.409.618-.2.16-.396.315-.591.479.035.678-.492 1.112-.767 1.655-.562.19-1.008.943-1.725.324-.456.569-.912 1.137-1.364 1.71-.45.953-1.429 1.352-2.15 2.005l-.166.02-.17-.025-.015.015c-.492.473-1.018.877-1.7 1.007-.471.444-.937.882-1.409 1.321-.33.419-.752.733-1.173 1.047-.576.364-1.143.738-1.7 1.127-.606.454-1.233.873-1.86 1.291-.105.11-.22.21-.33.314-.401.354-.883.594-1.359.843-.01.005-.02.005-.035.015.05.35.055.718.33 1.007l-1.092 1.012c-.341-.12-.501-.772-1.033-.354 0 .13 0 .255-.005.374-.461.105-.932.21-1.384.314-.596.344-1.183.678-1.774 1.017-.1.125-.206.245-.301.36-.226.134-.451.264-.682.398-.371.913-1.243 1.302-1.975 1.855-.677.454-1.41.828-2 1.401-.316.29-.647.544-.993.793.326-.13.641-.564.982-.26.12-.274.226-.568.406-.822.301-.274.647-.429 1.063-.374.045.025.085.06.126.09.205-.12.416-.24.621-.364 0-.09.02-.185.05-.27.396-.229.788-.458 1.184-.693.02-.12.035-.234.04-.359.23-.493.546-.887 1.163-.872 1.078.444.541 1.197.36 1.885-.325.374-.315 1.032-.967 1.121-.25.205-.496.41-.742.609-.581.344-1.168.688-1.755 1.027-.456.344-.922.673-1.383 1.017-.567.17-.637-.284-.802-.613v-.015c-.331.184-.662.374-.988.558-.1.13-.196.264-.296.389-.175.115-.34.23-.516.344l.015.11c-.572 1.56-2.266 1.924-3.254 3.036-1.213.743-2.1 1.935-3.45 2.483-.21 1.152-1.378 1.097-2.08 1.64-.085.898-1.228.599-1.484 1.297-.962.17-1.403 1.141-2.27 1.456-.743.653-1.48 1.306-2.222 1.964-.757.369-1.058 1.366-2.025 1.45-.126.115-.246.23-.366.345-.095.319-.186.638-.28.957.094-.025.195-.035.295-.025.02.01.035.02.05.03.536-1.216 1.61-1.8 2.767-2.288.326-.225.662-.44.988-.659.206-.16.411-.329.617-.483.346-.324.636-1.012 1.158-.653.541.394-.326.683-.346 1.092l-.381-.03c-.336.254-.672.498-1.008.748-.145.608-1.048.603-1.073 1.31-.316.913-1.223 1.018-1.935 1.402a.35.35 0 0 1-.356.025l.015.04c.06 1.311-.847 2.054-1.7 2.837-.982.309-1.458 1.48-2.591 1.55-.812.34-1.088 1.207-1.73 1.715-.16.37-.326.728-.742.878a.789.789 0 0 1-.587-.08v.005c.04.539-.325.828-.681 1.132a7.015 7.015 0 0 0-.973.738c.28-.075.552-.105.592.448-.216.44-.517.728-1.038.679 0 1.251-.918 1.87-1.8 2.507-.28.265-.707.305-.993.579-.556.359-1.103.708-1.66 1.067-.295 1.022-.816 1.87-1.799 2.363-.486.902-1.454 1.306-2.11 2.03-.427.428-.733.159-1.038-.16-.246.379-.432.842-.988.902-.226.38-.857.205-.998.703-.145.105-.285.2-.426.294-.386.589-1.168.4-1.644.813-.05-.045-.1-.08-.15-.13-.306.01-.622.015-.928.025v-.538c-.672.294-1.083.952-1.745 1.256-.115.11-.235.21-.356.314-.105.424-.21.843-.672 1.032-.085-.463-.075-.917.15-1.326-.01-.025-.02-.05-.034-.08.035-.344-.03-.708.245-.987.11-.114.211-.234.326-.344.517-.533 1.093-1.002 1.635-1.505.27-.155.476-.434.827-.38.03.01.045.026.07.04.441-.403.672-.902.612-1.53.225-.125.45-.264.672-.4l-.04-.054c.51-.638 1.027-1.271 1.77-1.675.34-.35.676-.693 1.017-1.042.115-.22.236-.449.356-.668.296-.294.416-.938 1.033-.643v-.06c.225-.35.45-.693.681-1.037.15-.22.301-.44.452-.653l.591-.384c.607-.484 1.203-.963 1.805-1.451-.005-.125 0-.255.04-.374.186-.334.336-.738.792-.574.055-1.176 1.42-1.426 1.815-2.363.1-.13.196-.24.311-.344.587-.613 1.288-1.082 1.97-1.575.126-.08.251-.16.386-.24.632-.374 1.264-.738 1.67-1.4.32-.42.702-.784 1.058-1.172.561-.519.802-1.352 1.609-1.63.11 0 .206.034.29.089-.165-.459.276-.623.467-.907.35-.404.657-.858 1.178-1.077a.9.9 0 0 0 .16-.065c.597-.419 1.199-.848 1.795-1.272.11-.13.206-.274.296-.423.13-.19.276-.354.451-.514.015-.015.025-.025.046-.04-.13-.21-.311-.359-.532-.439l-.175.13a3.322 3.322 0 0 1-.828.474c-.025.01-.05.015-.075.02-.075.628-.777.782-1.138 1.196-.08.065-.17.12-.25.175 0 .124.004.249.004.374-.285-.095-.576.22-.847.12-.02.01-.035.024-.055.03-.21.084-.431.129-.652.124.025.05.045.1.06.15.016.453-.095.872-.26 1.29a9.36 9.36 0 0 0-.351.3c-1.349-.573-.421.947-1.008 1.082-.01.1-.01.204-.005.299-.23.11-.471.214-.712.324-.336.25-.682.499-1.023.748-.456.354-.912.703-1.368 1.062l-.005-.065h-.005c.005.025.005.04.01.065l-.015.274c-.21.01-.416.03-.632.045a.63.63 0 0 1 .06.18c-.15.708-.652 1.126-1.253 1.46-.747.085-1.389.878-2.226.444-.2.429-.602.628-.973.878-.03.02-.065.03-.105.05.095.334.336.368.757.209.386-.15.742-.688 1.228-.185-.065.773-.742 1.087-1.198 1.566-.37.23-.722.504-1.183.553-.627-.523.396-1.34-.266-1.854-.37.498-.827.927-1.273 1.356.32.469.245 1.032.205 1.58-.095.549-.356 1.003-.812 1.332a.953.953 0 0 1-.441.134c-.456-.23-.968-.045-1.449-.16-.025-.014-.045-.014-.07-.02.005.01.015.01.025.02.11.669-.426.873-.832 1.172-.19.13-.396.21-.627.21-.436.409-.697-.1-1.028-.255a.43.43 0 0 1-.035.085c-.14.27-.33.494-.541.703a.621.621 0 0 1-.04.569c-.557 1.44-2 2.124-2.858 3.305-.226.145-.451.29-.672.434-.22.015-.436.035-.662.05-.035.055-.07.105-.11.164-.165.245-.346.469-.632.589-.03.005-.055 0-.085.005-.185.418-.571.653-.947.897 0 .992-1.244 1.147-1.4 2.05-.1.044-.2.064-.305.05-1.148 1.136-2.306 2.288-3.454 3.42-1.449 2.248-3.394 3.973-5.58 5.474-.095.12-.196.25-.296.374-.416.668-.882 1.271-1.75 1.366-.531 1.042-1.589 1.291-2.757 1.51l2.361-2.602c1.49-1.715 2.627-3.71 4.447-5.14.226-.559.582-.998 1.143-1.237.13-.154.246-.299.371-.444-.065-.254.08-.339.296-.354.456-.473.923-.947 1.374-1.42.3-.235.596-.464.892-.694.366-.623.883-1.106 1.494-1.485.321-.32.637-.624.948-.943.37-.593.792-1.136 1.474-1.41.07-.19.16-.345.41-.27.061-.08.131-.09.216-.03 0-.658.522-.987.933-1.366 1.75-1.64 3.369-3.435 5.4-4.766.44-.688.952-1.317 1.669-1.75.4-.454.792-.923 1.409-1.107.245-.314.49-.619.742-.933.27-.394.646-.683 1.032-.952.005-.005.005-.01.005-.01-.025-.479.482-.718.712-1.077.682-.354 1.369-.703 2.05-1.052-.01-.1 0-.2.036-.299.356-.454.807-.838 1.218-1.246.04-.03.08-.055.12-.085a14.24 14.24 0 0 1-.025-.474c.236-.214.477-.439.707-.658l.602.344c.29-.22.576-.439.867-.663l.978-1.047c.451-.35.907-.698 1.369-1.052.596-.922 1.499-1.5 2.406-2.09.125-.204.25-.418.376-.637.01-.205.025-.414.035-.624.632-.304.647-1.191 1.354-1.43.446-.35.892-.699 1.338-1.053.692-1.062 1.76-1.705 2.748-2.423.255-.219.501-.433.747-.648.556-.478 1.113-.947 1.67-1.416.415-.683 1.177-.952 1.739-1.456 2.015-1.785 4.01-3.57 6.262-5.05.13-.2.26-.39.396-.584a8.25 8.25 0 0 1 1.313-1.151c.993-.629 1.8-1.566 3.043-1.785.1-.948 1.063-1.037 1.565-1.586.36-.633 1.128-.683 1.619-1.117 1.62-1.136 3.249-2.283 4.868-3.425.396-.125.622.065.787.384.657-.469 1.324-.937 1.98-1.411a.83.83 0 0 0 .311-.07c.246-.294.502-.598.752-.902.532-.693 1.274-1.082 2.07-1.411.487-.32 1.064-.514 1.354-1.072.166-.12.296-.29.427-.459-.13.06-.266.11-.417.14-.656.04-.546-.334-.39-.723.676-.479 1.353-.943 2.035-1.421.23-.21.471-.419.707-.633.942-.678 1.885-1.352 2.827-2.04.757-.907 1.815-1.43 2.773-2.069.316-.548.842-.797 1.388-1.012.356-.224.692-.454 1.043-.683l1.319-1.072c.37-.214.742-.434 1.103-.648.025-.08.04-.16.04-.244.632-.569 1.153-1.336 2.116-1.356-.03-.04-.066-.08-.096-.125.602-.494 1.229-.942 2.03-1.052.026.025.05.04.076.065v-.055l-.075-.01c.43-.663 1.088-1.032 1.795-1.341.47-.34.942-.683 1.413-1.017.792-.768 1.69-1.391 2.723-1.82.697-.549 1.363-1.137 2.266-1.346a4.665 4.665 0 0 1 1.89-1.317c1.038-.693 2.075-1.396 3.103-2.089 1.023-.698 2.046-1.406 3.068-2.104.296-.13.442.04.562.274a.87.87 0 0 1-.055.48c-.196.268-.477.418-.757.568-.838.219-1.359 1.106-2.276 1.151.005.155 0 .3-.03.454.711-.668 1.609-1.097 2.431-1.625.371-.225.797-.37 1.093-.718.381-.19.722-.46 1.153-.544.105-.02.21-.035.32-.05.051-.065.111-.12.171-.174-.531-.165-1.188-.22-.792-1.107.301-.145.612-.29.913-.439.38-.22.752-.439 1.118-.653-.11.454-.216.907-.321 1.361l-.005.065c.747-.065 1.138-.693 1.694-1.072a804.17 804.17 0 0 1 3.83-2.393c.572-.479 1.144-.952 1.71-1.431.1-.2.256-.34.416-.444a1.021 1.021 0 0 1-.747-.194l-.165-.02-.156.005c.898-.609 1.494-1.64 2.703-1.765.772-.818 1.88-1.077 2.797-1.66.652-.733 1.645-.873 2.427-1.382.436-.877 1.258-.683 2-.718.04.055.085.115.13.17l.086-.06a1.093 1.093 0 0 0-.216-.11c.506-.314.3-1.27 1.158-1.276.321-.264.657-.523.983-.783.787-.478 1.449-1.49 2.517-.847.16-.13.325-.26.476-.4.356-.383.897-.558 1.213-1.011 1.334-.913 2.702-1.775 4.161-2.498 2.708-1.68 5.41-3.356 8.117-5.02.587-.36 1.208-.64 1.805-.953 3.58-2.339 6.999-4.896 10.759-6.936.44-.234.807-.668 1.398-.558.306-.234.627-.469.943-.688.501-.514 1.078-.882 1.78-1.052.26-.384.616-.603 1.078-.638.802-.693 1.75-1.117 2.742-1.456 4.763-3.29 9.816-6.128 14.89-8.9a757.182 757.182 0 0 0 19.923-11.238c.396-.234.818-.563 1.239-.583 4.201-.155 7.645-2.678 11.62-3.55.221-.05.447-.075.678-.105.862-.598 1.82-.897 2.857-.972.231-.125.602.005.677-.389-.13-.917.491-1.266 1.173-1.595.662-.32.697.284.933.593 2.908-1.436 6.021-2.463 8.663-4.408 1.157-1.116 2.71-1.086 4.144-1.42-.003.001-.003.004-.003.004l.01-.004h-.005-.002.002c.16-.2.366-.3.612-.335.15-.01.29-.024.42-.044.588-.384 1.345-.37 1.946-.688a.355.355 0 0 1 .12-.33c2.156-.578 3.986-2.014 6.217-2.418.507-.324.953-.797 1.65-.718.596-.219 1.193-.448 1.794-.673h-.015c1.234-1.052 2.753-1.306 4.277-1.446.536-.05 1.278-.388 1.654.404v-.01c1.484.683 2.793.185 4.071-.568.421-.04.767-.224 1.023-.559.03-.284.1-.588.416-.643.401-.065.401.285.401.544 0 .434.2.593.617.523.01.07.03.13.045.195.015-.01.035-.01.06-.015-.04-.06-.07-.12-.105-.18 1.845-.683 3.57-1.68 5.52-2.064.245-.16.571-.429.787-.319.45-.384 1.002-.643 1.594-.833a.53.53 0 0 1 .2-.17c1.46-1.295 3.179-2.173 4.969-2.926a2.393 2.393 0 0 1 0-.424c1.6-.583 3.158-1.231 4.447-2.388.316-.154.641-.304.957-.458.05.064.1.134.15.204 1.013-.479 2.021-.957 3.029-1.436l-.557-1.341c.005-.155.025-.314.055-.469a758.37 758.37 0 0 0 4.051-1.745c1.143-.075 1.805-.962 2.652-1.54.547-.634 2.131.443 2.136-1.092-.32-.03-.672-.035-.496-.539 1.84-.728 3.675-1.46 5.515-2.194l-.08-.1c.23-.224.446-.478.711-.662.391-.265 1.068-.25 1.103-.853.07-.868-1.153.035-1.203-.823.521-.648 1.414-.244 2.026-.648.386-.264.802-.588 1.263-.334.32.18.17.539-.005.808.486.623.972 1.241 1.459 1.864.09.015.185.035.276.06v-.005c.737-.478 1.473-.952 2.205-1.426.07-.334.13-.663.196-.997-.592.12-1.208.758-1.77.215-.41-.41.341-.803.311-1.272.055-.124.105-.254.15-.379 1.159-.897 2.322-1.78 3.886-1.83.296-.124.591-.254.887-.378.697-.519 1.349-1.192 2.362-.848.41 1.197-.582 1.57-1.254 2.139.055.1.085.204.085.324-.01.095-.015.18-.025.28.05-.01.09-.026.136-.036a.72.72 0 0 0-.11-.244c1.308-.389 2.08.294 2.616 1.341.472.903-.376 1.112-.882 1.481-1.013 1.476-1.875-.873-2.863-.11-.396.344-.792.698-1.188 1.052h-.005c.015.628-.481.678-.922.798v.005l.005-.005c.13.2.26.399.39.588.477-.399.988-.638 1.59-.249.336.2.642.504 1.008.593.15-.184.286-.389.41-.608.608-1.077 1.43-1.775 2.773-1.54.086 0 .176-.025.251.004zm-98.168 43.928c.011.016.022.033.035.048zM899.593 282.578c.1-.104.205-.204.31-.309-.175-.2-.325-.399-.42-.638-.096.095-.201.18-.311.25.08.229.1.498.36.638.026.02.036.04.06.06zm216.741-129.028a5.043 5.043 0 0 0-.476.005c.175.015.346.045.516.085a.134.134 0 0 0-.04-.09zm-169.771 88.942c.246-.164.472-.378.723-.508a1.479 1.479 0 0 1-.396-.11.13.13 0 0 1 .03.065c-.046.244-.191.408-.357.553zm43.843-23.259c.136-.189.326-.339.517-.478-.096-.374.115-.738.175-1.102-.025 0-.04 0-.06.005-.125.449-.416.718-.887.768.2.224.25.508.255.807zm133.167-69.552c-.265.279-.571.478-.977.468a2.358 2.358 0 0 1-.336-.065c-.25.22-.451.478-.406.856a64.525 64.525 0 0 1 3.695-2.249c-.662.329-1.319.662-1.976.99zm-159.802 81.07c-.251.184-.513.319-.81.21.116.144.187.313.217.503.12-.255.352-.41.568-.584.01-.005.015-.015.025-.02zm-17.709 12.096c-.175.09-.35.17-.541.094.005.01.01.01.01.02-.035.204-.155.369-.3.523.245-.244.55-.428.831-.637zm-1.042.882c-.12.144-.221.309-.231.508.05-.194.13-.364.23-.508zm-41.06 39.926c.621-.518 1.223-1.062 1.844-1.575-.536.065-.887.578-1.393.708.005.01.005.01.005.02-.116.319-.276.598-.456.847zm19.993-17.46c.176-.439.717-.678.722-1.207-.637.414-1.043 1.322-2.05.993l-.09.508c-.347.15-.672.324-.903.618.1.04.18.09.236.155.23-.19.466-.379.752-.489a.921.921 0 0 1 .436 0c.135-.394.481-.528.897-.578zm58.838-42.909c.236-.179.476-.353.722-.532a.149.149 0 0 1-.02-.04 4.607 4.607 0 0 1-.2-.239c-.236.144-.477.274-.748.338a.46.46 0 0 1-.015.16 2.17 2.17 0 0 1-.31.363c.16-.075.345-.115.556-.125zm5.775-.702c.366-1.336 1.8-1.381 2.642-2.144.09.025.176.03.271.045.1-.25.27-.454.456-.638-.245.09-.531.124-.872.04a1.796 1.796 0 0 0-.286-.045c-.35.753-1.093 1.002-1.78 1.316l-1.117 1.341c.195.38.45.195.701.105 0-.01-.01-.01-.015-.02zm4.392-2.179c.27-.025.532-.17.812-.144-.04-.12-.035-.245-.04-.374-.2.259-.486.398-.772.518zm112.908-62.279c.366-.124.722-.244 1.083-.368-.08-.244-.226-.328-.411-.353a8.167 8.167 0 0 1-.672.721zm28.426-4.568c1.334-.647 2.783-1.03 4.081-1.742.115-.084.236-.159.346-.243-.687.273-1.374.552-2.06.82-.622.25-1.234.493-1.87.682l-.241.03a.962.962 0 0 1-.256.453zm30.136-20.617c.732-.995 1.95-1.17 2.963-1.677a2.9 2.9 0 0 0 .31-.13c-.024-.054-.044-.109-.07-.163v-.005c-.741.05-1.619.985-2.14-.329a.858.858 0 0 1-.105-.642c-.833.508-1.69.96-2.632 1.234a3.73 3.73 0 0 1-.321.075c.742.488.922 1.184.646 2.05.261-.189.572-.279.938-.239.1.06.205.12.31.184.01.015.026.015.036.025a1.106 1.106 0 0 1 .065-.383z"/></g></g><g><path fill="#ffe030" d="M989.273 248.092c.428.332.828.028 1.236-.06.536-.956 2.364-.648 2.208-2.276-.992 1.008-2.556 1.164-3.444 2.336"/></g><g><path fill="#ffe030" d="M894.696 297.544c.016.368.268.44.564.456.676-.1 1.132-.58 1.656-.956.204-.188.372-.396.388-.692a3.24 3.24 0 0 0-.14-.232c-1.356-.452-1.94.44-2.468 1.424"/></g><g><path fill="#ffe030" d="M897.016 297.012c-.004-.004-.004-.008-.004-.012a.195.195 0 0 1-.028-.012z"/></g><g><g/><g clip-path="url(#xoymc)"><path fill="#ffe030" d="M1179.265 125.218c-.082-.133-.671-.206-.687-.188-.451.811-.935 1.622-.32 3.066.727-1.2 1.629-1.856 1.007-2.878"/></g></g><g><path fill="#ffe030" d="M994.302 244.644c.324.328.696.192 1.06.108.772-.504 1.556-1.004 2.336-1.504-.744-.336-1.284.268-1.92.416-.364.524-.94.716-1.476.98"/></g><g><path fill="#ffe030" d="M892.934 301.002c.1-.168.16-.356.172-.556-.604-.364-1.084.116-1.616.252-.196.22-.396.444-.596.672l.528.228c.688.268 1.124-.104 1.512-.596"/></g><g><path fill="#ffe030" d="M1059.895 186.162c.54-.14.94-.48 1.248-.94.128-.06.248-.12.372-.172.3-.332.612-.66 1.18-1.284-.86.336-1.344.532-1.832.72-.368.22-.812.34-.944.828a1.07 1.07 0 0 0-.352.172c.092.24-.832.98.328.676"/></g><g><path fill="#ffe030" d="M1066.867 190.714c-.277.408-.548.81-.867 1.286l1.3-.251c.273-.188.544-.371.81-.56a276.21 276.21 0 0 0 1.824-1.228c2.012-.905 3.767-2.17 5.324-3.718.825-.366 1.771-.539 2.226-1.464 1.044-.633 2.095-1.266 3.145-1.909 1.374-.879 2.758-1.762 4.138-2.64 1.118-.524 2.356-.843 3.15-1.904.183-.408.047-.743-.246-1.025-.768-.57-1.442-.235-2.1.22-.674.543-1.437.993-1.792 1.845-.59.414-1.447.482-1.734 1.303h-.006c-1.42.773-2.81 1.59-3.976 2.74-.69.549-1.781.486-2.199 1.453-.475.272-.95.534-1.421.806a.686.686 0 0 0-.105-.246c-1.781.721-3.646 1.286-4.979 2.797-.13.22-.198.45-.188.701-.653-.105-1.165.167-1.546.758-.032.215-.01.413.02.602-.365-.079-.621.083-.778.434"/></g><g><path fill="#ffe030" d="M952.594 274.364c.412.296.848-.064 1.052-.832-.32.04-.552.008-.688.1-.252.164-.976.292-.364.732"/></g><g><path fill="#ffe030" d="M1029.878 222.562c-.376.108-.752.224-1.124.332-.216.124-.424.248-.632.376.82.436 1.324-.04 1.756-.708"/></g><g><path fill="#ffe030" d="M1038.547 213.78c.512-.208.86-.508.944-1.56-.48.724-1.152.768-.944 1.56"/></g><g><path fill="#ffe030" d="M901.784 305.3c-.16.296-.08.516.224.656.932-.38 1.648-1.036 2.288-1.784-1.264-.576-1.58.98-2.512 1.128"/></g><g><path fill="#ffe030" d="M1037.786 201.609c-.592-.372-1.064.064-1.572.236.092.228.18.46.276.692.568-.116.984-.452 1.296-.928"/></g><g><path fill="#ffe030" d="M1041.804 201.981c-.724-1.184-1.072.188-1.608.236.172.072.34.148.504.216.504.172.86.004 1.104-.452"/></g><g><g/><g clip-path="url(#xoymd)"><path fill="#ffe030" d="M851.97 355.001l-.797-.201c-1.078.353-.605.958-.363 1.53.165-.05.336-.091.5-.128 1.183.413 2.2.06 2.233-.921.033-.935-.918-.596-1.573-.28"/></g></g><g><path fill="#ffe030" d="M1023.724 209.935c-.168-.356-.708-.068-1.076.016-.212.136-.428.268-.64.404-.448.68-1.996.088-1.788 1.536.356.464.72.452 1.108.04.468-.304.98-.412 1.532-.324.04-.016.072-.064.088-.14.012-.084-.052-.128-.2-.148-.016-.72 1.388-.504.976-1.384"/></g><g><path fill="#ffe030" d="M1003.01 223.639c.688.02 1.048-.44 1.364-.944a.535.535 0 0 0-.24-.496c-1.324-.32-1.76.844-2.508 1.492.48.348.928.056 1.384-.052"/></g><g><path fill="#ffe030" d="M920.906 276.57c-.076-.049-.1-.109-.084-.2-.672.02-1.196.38-1.728.727.208.16.404.316.608.476.88.236 1.12-.288 1.204-1.004"/></g><g><path fill="#ffe030" d="M1016.204 214.546c.877-.84 1.825-1.608 3.145-1.92.285.012.49-.096.616-.316.201-.82-.518-1.14-.984-.688-.929.896-2.371.956-3.272 1.788-.046.376-.354.544-.709.68.205.528.686.536 1.204.456"/></g><g><path fill="#ffe030" d="M942.403 280.923c.416.316.696-.404 1.032-.672.472-.448.44-.864-.084-1.252-.224.088-.444.18-.672.276a.266.266 0 0 0-.14.14c-.036.088.02.156.192.216.112.508-.888.876-.328 1.292"/></g><g><path fill="#ffe030" d="M1131.08 156.18c.04.124.072.252.092.38.56.08 1.04-.48 1.632-.216.04-.308.076-.608.116-.912-.276.092-.548.176-.82.264-.34.16-.676.32-1.02.484"/></g><g><g/><g clip-path="url(#xoyme)"><path fill="#ffe030" d="M1084.642 187.333c.636-.725 1.363.21 2.014-.11.065.09.13.185.2.28-.145.5-.49.829-.942 1.064l-.02.12-.11.05c-.13.774-1.403 1.418-.17 2.367.325.25-.115.715-.411.994-.46.43-.917.86-1.378 1.29-.716 1.063-1.057 2.272-1.322 3.501.095.66-.306 1.14-.596 1.649-.236.08-.471.154-.712.234-.105.19-.215.38-.326.565-.105.53-.285.984-.911 1.059 0 .005-.005.01-.01.01.075.065.095.16.075.3-.566.544-1.132 1.094-1.689 1.648-1.047.665-1.553 1.943-2.77 2.413-.541.23-1.157.22-1.698.5-.406.35-.887.584-1.373.779-.185.13-.376.274-.521.45-.205.414-.516.739-.902.998a5.498 5.498 0 0 0-.42.345c-.717.405-1.438.8-2.3.754h-.01a1.413 1.413 0 0 1-.13-.174c-1.038.664-2.23 1.069-3.212 1.823-.4.28-.811.53-1.257.72-1.107.324-1.894 1.198-2.901 1.698-.561.26-1.147.484-1.663.834-.546.375-1.112.73-1.613 1.169-.146.415-.521.72-.822 1.064.095-.055.195-.105.306-.14.54-.36 1.032-.79 1.703-.89.04 0 .085.006.13.01.08-.209.286-.284.526-.324.892-.185 1.458-1.049 2.405-1.129.04.015.07.03.11.055 1.218-.974 2.8-1.169 4.153-1.868.025-.005.055-.015.086-.025.015-.864.61-1.01 1.307-1.024-.436.35-.867.68-1.292 1.019.576-.175 1.102-.545 1.748-.475 1.468-.71 2.775-1.718 4.374-2.168.1-.065.205-.125.305-.195.456-.314.922-.634 1.378-.954.937-.68 1.874-1.358 2.81-2.043.05.744-1.137.954-.801 1.824l-.14.09-.136.1c-.681-.066-1.102.489-1.663.699l-.12.115-.156.075a.308.308 0 0 0-.24.02c.075-.005.155-.015.24-.02-.37.27-.746.539-1.117.804-1.508 1.194-3.016 2.393-4.519 3.582-.466.09-.786.484-1.247.594-1.107.8-2.26 1.534-3.266 2.438.851.07 1.372-.185 1.838-.585.551-.25 1.092-.494 1.638-.744.18-.16.351-.32.526-.48.256-.035.511-.075.767-.12.48-.304.957-.609 1.433-.909h.496c.08.705-.667.75-.932 1.16-.977.794-1.829 1.758-3.116 2.102-.11-.03-.186-.09-.22-.17 0 .006-.016.01-.02.016-.928.844-1.884 1.643-3.072 2.108l-.145.035-.105.104c-.902.25-1.513.975-2.295 1.434-.3.2-.486.55-.841.705-.351.16-.717.25-1.078.354-.275.14-.546.285-.806.44-.296.255-.596.504-.897.75.175-.106.35-.19.541-.266.601-.165 1.132-.504 1.714-.739.145-.055.295-.11.44-.16a.856.856 0 0 1 .566-.185c.1-.06.196-.125.291-.19.155.025.316.05.476.07.376-.27.751-.54 1.132-.804.882.045 1.228-1.149 2.144-1.019l.03-.06.557-.404c.36-.06.721-.12 1.578-.27-1.198.844-2.03 1.433-2.866 2.018-.676.285-1.127 1.009-1.954 1.009-.456.285-.917.564-1.378.854-.556.395-1.112.775-1.663 1.17-.2.329-.691.464-.656.953.822-.2 1.733-.155 2.38-.844.576-.185.901-.86 1.593-.814.48-.275.972-.555 1.443-.83.16 0 .315.006.47.016.18-.125.371-.25.562-.375.486-.335.977-.66 1.452-.99.176.026.346.04.517.066.47-.305.796-.92 1.507-.725-.465.315-.926.62-1.397.935-.461.344-.932.694-1.403 1.054-.085.08-.175.16-.26.24a1.097 1.097 0 0 1-.096-.15c-.335.524-.922.714-1.403 1.029-.225.44-.67.25-1.017.35-.255.224-.516.439-.776.664-.366.48-.792.894-1.448.919l.02.01c-.987.265-1.608 1.004-2.244 1.723-1.393.69-2.676 1.509-3.798 2.598-.135.155-.28.285-.436.414-.275.2-.556.4-.826.6.831-.31 1.428-1.164 2.4-1.174.425-.315.871-.61 1.317-.904.326-.2.641-.4 1.007-.41.04-.045.075-.09.105-.135.236-.29.496-.53.792-.739a3.3 3.3 0 0 1 .942-.485c.335-.114.671-.194 1.012-.3.962-.309 1.668-1.043 2.505-1.568.4-.275.816-.55 1.272-.724.065-.025.125-.06.19-.08.271-.55.817-.844 1.303-1.154 1.593-1.014 2.916-2.458 4.8-3.007a.497.497 0 0 1 .17-.01c-.07-.02-.11-.06-.1-.11a.15.15 0 0 1 .05-.105c.977-.49 1.392-1.714 2.58-1.903-.486 1.054-1.388 1.728-2.25 2.447-.29 1.679-1.984 1.974-2.95 2.973 0-.005.005-.01.005-.015-1.493 1.563-3.257 2.752-5.21 3.666-1.484 1.02-2.982 2.038-4.47 3.053-.22.35-.51.35-.816.234-.256.165-.516.335-.772.495-.626.265-.345.989-.716 1.379-.27.06-.536.115-.797.174-.35.235-.68.475-1.027.72-.075.305-.155.614-.225.924-.641.195-1.283.4-1.919.6a.799.799 0 0 0-.14.2c-.11.11-.23.204-.366.289-.055.03-.115.07-.18.1-.842.959-1.909 1.653-2.976 2.348-.19.13-.386.254-.581.394-.24.05-.486.095-.727.145-.47.345-.931.7-1.402 1.044-5.246 2.933-9.524 7.274-14.744 10.26-.236.066-.471.136-.707.206h.005a881.963 881.963 0 0 0-4.594 3.551c-.601.09-.967.53-1.373.935-.265.274-.566.514-.916.424-.02.025-.035.05-.05.075-.516.65-1.027 1.299-1.629 1.868.13.02.26.04.391.055.1-.02.19-.055.28-.1.948-.679 1.89-1.353 2.836-2.033l.476.06c.145 0 .21.035.21.12-.004.075-.024.12-.06.15l-3.106 2.183c-.27.205-.536.41-.806.605-.04.164-.085.33-.13.5-.792.434-1.423 1.178-2.405 1.288-.917.544-1.628 1.444-2.78 1.588-2.731 2.778-5.952 4.746-9.74 5.74-.215.06-.44.155-.596.31-3.617 3.437-7.94 5.944-11.959 8.842-5.891 4.256-11.888 8.357-17.845 12.528-.26.25-.496.55-.901.565-2 2.433-4.394 4.46-7.03 6.14-.59.379-.826 1.513-1.883 1.118-.095.2-.005.495-.316.57-2.82 2.403-5.556 4.855-9.253 6.024-2.735.854-4.599 3.107-6.528 5.146a9.167 9.167 0 0 1-3.206 2.572 3.2 3.2 0 0 1-1.067.445c-2.024 1.279-4.103 2.468-5.832 4.141l-3.14 2.643c-5.306 5.764-11.173 10.915-17.375 15.695-.45.355-.857.77-1.283 1.154-.776 1.918-2.615 2.833-4.143 3.892-2.535 1.748-4.73 3.931-7.35 5.535l-.054-.025c-.005.005-.01.005-.01.01l.065.015c-.742 1.139-2.09 1.438-3.071 2.223a2263.322 2263.322 0 0 0-6.453 5.265c-2.775 2.188-5.536 4.386-8.321 6.564-1.032.8-2.14 1.463-3.387 1.878-.065.025-.13.05-.195.065-1.233.764-2.56 1.054-3.988.78-.947.184-1.824-.12-2.72-.335h-.006c-.345.154-.676.11-.957-.14-1.067-.27-2.144-.54-3.03-1.25-1.238-.379-2.365-.998-3.402-1.772-1.388-.76-2.435-1.884-3.417-3.093-.656-.145-.862-.774-1.272-1.179-.511-.4-.972-.829-1.408-1.288-.32.2-.546-.285-.777-.75-.506.415-.065 1.359-.891 1.599.035.394.225 1.029-.341.984-.772-.075-.737-.714-.421-1.309-.045-.76.155-1.424.731-1.958-.08-.15-.105-.31-.08-.47.05-.02.106-.04.146-.055-.692-.924-1.333-1.888-1.994-2.837-.551-.79-.992-1.654-1.478-2.483-.31-.46-.606-.929-.907-1.389-.01.075-.02.15-.025.23-.852-.32-1.022-.394-.681-1.239a.975.975 0 0 0-.086-.114c-.445-.575-.34-1.01.106-1.464.6-1.379 1.598-2.328 2.81-3.047.837-2.433 3.031-3.972 4.183-6.185.291-.24.521-.524.732-.824.125-.435.255-.864.39-1.299.512-.45.872-1.084 1.619-1.239.957-1.254 1.924-2.502 2.875-3.751 1.037-1.499 2.014-3.057 3.698-3.942 0-.105.01-.2.045-.3a78.751 78.751 0 0 0 5.23-5.344c2.164-2.413 4.845-4.371 7.294-6.53.426-.374.827-.784 1.238-1.183 1.007-.22 1.187-1.364 2.024-1.769.24-.16.48-.31.726-.464.005-.145.01-.29.03-.435.291-.2.577-.405.867-.614.436-.425.887-.835 1.258-1.32a34.185 34.185 0 0 1 4.278-3.646c.17-.185.36-.36.551-.524-.356.164-.746.214-1.242.045-.491-1.244.876-1.41 1.267-2.144 1.017-1.558 2.786-2.138 4.193-3.202.426-.224.862-.444 1.288-.669.28-.26.556-.52.827-.764.46-.96.987-.73 1.533-.1-.386.175-.772.344-1.153.52.03.084.055.17.07.264-.33 1.134-1.102 1.414-2.099 1.289.025.195.01.385-.055.574-.205.405-.506.75-.846 1.044-.647.48-1.293.955-2.065 1.22-.015 0-.025 0-.04.004-.01.28-.115.53-.285.765.29-.235.566-.47.836-.74.622-.64 1.488-.984 2.1-1.653.466-.295 1.107-.24 1.483-.735.997-1.563 3.166-1.648 4.118-3.267.265-.14.526-.28.786-.42.431-.03.782-.184.902-.644.711-.37 1.413-.724 2.124-1.089.17-.085.336-.174.501-.27a1.01 1.01 0 0 0-.5.27c.12-.23.25-.464.37-.699.756-.999 1.588-1.908 2.785-2.398.647-.32 1.423-.37 1.92-.989.395-.095.766-.205.756-.72.926-.429 1.958-.729 2.53-1.698.726-.15 1.337-.48 1.698-1.164.912-.849 1.969-1.523 2.976-2.253l.02.02c1.879-.834 3.722-1.738 5.275-3.107a.742.742 0 0 1 .266-.604c.325-.195.656-.24 1.007-.085.295-.115.586-.225.882-.34.596-1.039 1.778-1.074 2.685-1.583.315-.12.631-.245.942-.355 1.187-1.648 3.016-2.403 4.684-3.372.771-.455 1.503-.969 1.949-1.778.761-.37 1.523-.73 2.284-1.094.23-.285.466-.565.702-.845.2-1.613 1.568-2.437 2.434-3.596 1.649-.265 1.213-1.764 1.649-2.753.706-.47 1.142-1.319 2.084-1.448v-.005c-.01-.145-.01-.3.015-.45.721-.3 1.443-.604 2.159-.904.802-.31.987-1.484 2.034-1.444.897-1.109 2.08-1.813 3.357-2.363-.16-.224-.116-.394.14-.51.15.026.24-.03.27-.174 2.225-1.239 4.444-2.483 6.664-3.722 1.528-.46 2.36-1.908 3.712-2.622.035-.15.07-.29.1-.43.511-.26 1.012-.524 1.508-.774 1.117-1.234 2.745-1.669 4.033-2.633 1.242-.135 1.854-1.793 3.327-1.374.375-.294.756-.594 1.132-.904.26-1.348 1.578-1.443 2.47-2.048-.015-.15-.02-.3-.015-.45 1.377-.254 2.154-1.528 3.416-1.968.401-.36.797-.714 1.203-1.069.185-.02.36-.04.546-.065.806-.599 1.408-1.608 2.665-1.333.01-.45.356-.595.696-.745.02-.474.316-.694.727-.804.977-1.099 2.284-1.708 3.527-2.398a1.407 1.407 0 0 1-.015-.434c.416-.205.821-.4 1.232-.6.867-.13 1.553-.914 2.555-.734.095.919-.621 1.059-1.192 1.334-.536 1.039-2 .944-2.51 2.018.356.36.771.225 1.182.12.747-.445 1.488-.885 2.23-1.33.6-.274 1.192-.544 1.798-.813.787-1.27 2.11-1.804 3.367-2.423.09.045.17.065.26.07-.09-.025-.17-.055-.26-.07.11-.1.235-.17.38-.2-.01-.14-.004-.275.006-.415.085-1.104.966-1.533 1.738-2.068.907-.544 1.728-1.324 2.93-1.014.677-.829 1.724-1.049 2.576-1.598.436-.44.857-.485 1.272.025l-.015.174c.136.045.206.125.206.24 0 .135-.02.21-.07.23.065.17.135.34.2.51.26-.18.526-.35.817-.485.63-.245 1.222-.56 1.793-.904.21-.155.436-.29.661-.42.541-.344 1.068-.714 1.614-1.049.12-.1.24-.185.37-.275 0-.025-.005-.05 0-.08.436-.24.872-.479 1.303-.719.626-.44 1.207-.944 1.743-1.498 1.233-1.05 2.71-1.739 4.043-2.648.21-.16.421-.3.657-.42.07-.035.145-.07.22-.105.857-1.049 1.763-2.038 3.296-2.063.046-.045.1-.08.146-.125.285-.22.59-.41.917-.564.22-.115.445-.2.68-.26.181-.04.372-.07.557-.075.967-.914 2.355-1.329 3.206-2.398-.01-.005-.015-.005-.025-.005-.39-.824.08-.979.757-.969.466-.184.922-.37 1.388-.56.6-.659 1.232-1.243 2.229-.933a.761.761 0 0 1-.15-.405c.25-.604.746-.85 1.362-.914.451-.24.887-.48 1.338-.72.25-.32.586-.444.992-.429.821.674.466 1.284-.115 1.878-.29.415-.822.495-1.183.815-.42.19-.846.38-1.267.569.145-.355.165-.53.115-.614-.04.204-.075.404-.115.614-.16.055-.336.115-.496.175-.33.42-.521 1.004-1.193 1.034-.916.894-1.828 1.783-2.75 2.672-.235.54-.631.89-1.197 1.035-1.95.749-3.507 2.103-5.19 3.267a8.882 8.882 0 0 1-.226-.14c-.581.384-1.358.504-1.688 1.224-.27.14-.531.26-.797.39a.29.29 0 0 0-.165-.07c.055.024.11.044.165.07-.706.424-1.413.843-2.114 1.268a4.47 4.47 0 0 1-.41.664c-.251.265-.537.475-.847.66-.501.295-.992.6-1.478.909-1.173.88-2.35 1.758-3.522 2.638 0 .005-.005.005-.005.005-.216.184-.426.354-.637.544-.185.16-.39.305-.596.435-1.087.55-2.084 1.204-2.73 2.288-1.152 1.343-2.73 2.093-4.153 3.057.3.065.61.135.911.2-1.713 1.169-3.11 2.777-5.075 3.591-1.287.845-2.565 1.694-3.852 2.543-2.64 1.978-5.3 3.961-7.946 5.945-2.154 1.648-4.153 3.511-6.508 4.9-.115.065-.23.12-.34.18-.12.285-.35.465-.687.534-.16.03-.305.08-.45.145-.952.61-1.834 1.314-2.61 2.168-.236.31-.497.585-.777.845-1.052.814-2.074 1.683-3.482 1.828-.035-.005-.06-.015-.09-.02-.316.38-.621.764-.932 1.144-.47.225-.937.44-1.408.66-.105.214-.245.234-.42.084l-.04.015c.415 1.25-.892 1.579-1.373 2.343-1.679 1.289-3.322 2.623-5.045 3.857-2.285 1.463-4.063 3.616-6.513 4.855-1.603 2.213-3.938 3.567-6.087 5.135-.35 1.02-1.498 1.1-2.124 1.804-.857.534-1.714 1.084-2.575 1.618-.336.964-1.318 1.014-2.03 1.439-.44.35-.886.644-1.317-.015.611-1.429 1.703-2.298 3.201-2.673.09.035.166.07.226.11.16-.324.426-.46.791-.404.01 0 .015-.005.03-.005a.07.07 0 0 1-.02-.015c.085-1.2.637-1.963 1.824-2.168a.866.866 0 0 1 .18-.45c.797-.754 1.839-1.219 2.54-2.093.797-.674 1.608-1.339 2.425-1.998.19-.135.406-.235.631-.3.24-.025.451.02.652.155.486-1.918 2.149-2.872 3.486-4.091.772-.44 1.508-.894 2.12-1.499a8.94 8.94 0 0 1-1.533.714c-.216.04-.431.055-.632.04-.13.125-.255.255-.385.38-1.208.944-2.32 2.053-3.878 2.438-.24.305-.476.604-.711.899-.326.11-.652.225-.977.335-.571.4-1.148.804-1.714 1.204-.295.25-.781.364-.706.904-.28.095-.571.19-.842.29 0 .06.005.114.005.18-1.202.414-2.22 1.078-2.93 2.142l-1.458.555c-.311.43-.536.949-1.153 1.034-.661.954-1.683 1.254-2.73 1.489-.882.909-1.809 1.748-3.236 1.448.085-.25.17-.494.26-.734a3.35 3.35 0 0 1 .747-.774c-.557.33-1.143.604-1.559 1.134-.145.18-.305.334-.465.49.25.02.546.139.876.399-.26 1.109-1.423 1.254-2.099 1.923-.25.295-.5.584-.761.874-1.223-.095-1.103 2.213-2.676 1.504-1.518.85-2.5 2.652-4.554 2.533-.115.224-.225.444-.34.659-.226.664-.827.834-1.378 1.074-.822 1.024-1.979 1.594-3.056 2.263l-.22.03-.206.09c-.49 1.124-1.974.989-2.555 1.993-1.102.03-1.373 2.078-2.86 1.164h.18c-.286-.12-.571-.225-.867-.345.07-.05.14-.1.21-.155a.915.915 0 0 0-.21.155c-.576.38-1.157.755-1.743 1.134.54-.145 1.072-.25 1.628 0-.07.21-.155.42-.236.635-1.107 1.099-2.555 1.708-3.787 2.617-.536.435-1.067.86-1.608 1.294-.145.94-1.443.644-1.638 1.529-.26.729-.887.794-1.498.894.005.08.02.155.02.235-.246.889-1.448.58-1.759 1.388-.28.12-.56.245-.831.375-.286.245-.582.47-.897.68-1.258.963-2.52 1.918-3.783 2.887-.035.01-.07.015-.1.025-.055.065-.11.135-.16.21-.596 1.538-1.804 2.232-3.367 2.447-.095-.05-.175-.1-.255-.15-.857 1.894-3.026 2.208-4.344 3.552-.611.62-1.528.92-1.733 1.888-.075.44-.356.73-.747.935-.165.085-.335.184-.51.284-.462.395-1.013.58-1.584.71a4.324 4.324 0 0 1-.917.185c-.095.02-.18.035-.27.06-1.668 1.608-3.337 3.217-5.005 4.835-.296.11-.601.22-.912.33-.005.055-.025.1-.04.15a1.884 1.884 0 0 1-.556.534c.386.105.736.28 1.072.495-.06-1.1.707-1.114 1.553-1.03a.668.668 0 0 1-.14-.21c-.01-.254.035-.494.16-.714 1.007-1.079 1.869-2.422 3.657-2.168-.02-.035-.05-.06-.07-.1.276-1.833 2.094-2.098 3.192-3.092.64-.684 1.783-.184 2.37-.994.135-.08.28-.165.42-.235.155-.18.37-.32.546-.114.326.354.13.689-.155.974-1.117.844-2.22 1.678-3.332 2.512-.42.895-1.177 1.324-2.099 1.549-.07-.01-.13-.025-.19-.04-.496.51-.972 1.024-1.458 1.534-.717.46-1.423.914-2.134 1.368-.481.77-1.233 1.18-2.034 1.519-.06.495-.411.674-.842.75-2.21 1.498-3.667 3.886-6.122 5.09l-2.5 2.088c-.42 1.633-2.039 1.948-3.131 2.837-.436.515-.807 1.1-1.523 1.264-.426.495-.852.99-1.278 1.479 1.318-.865 2.666-1.689 4.068-2.413.28-.215.566-.405.937-.47 1.99-1.284 3.983-2.562 5.972-3.846 1.698-1.664 3.717-2.863 5.751-4.051.376-.255.747-.515 1.118-.775 1.543-1.399 3.266-2.552 5.004-3.671.19-.255.406-.49.782-.505.04-.025.08-.055.125-.085.34-1.039 1.338-1.104 2.164-1.429.14-.095.281-.184.416-.284 2.014-1.414 3.748-3.187 5.882-4.406.38-.215.646-.71 1.202-.485.26-.59.817-.82 1.328-1.099a1.39 1.39 0 0 1-.19-.355c.105-.104.225-.184.36-.24.155.03.356-.044.546-.12 1.082-1.153 2.565-1.798 3.828-2.732l.01-.005c.115-.42.496-.754.621-1.169 1.212-.574 1.588-.754 1.839-.494 1.017-.65 2.044-1.274 3.046-1.923.43-.72 1.012-1.21 1.863-1.33 0-.004-.005-.004-.005-.01.812-1.168 2.12-1.728 3.182-2.582a1.464 1.464 0 0 0-.116-.215c.196-.604.596-.904 1.052-1.104.09-.564.837-.749 1.303-1.069.666-.24 1.338-.47 2.004-.699.04.135.065.25.08.365 1.197-.85 2.435-1.644 3.677-2.438-.23.045-.47.04-.716-.06.741-.33 1.272-1.144 2.23-1.004a.72.72 0 0 0-.056.13c.326-.215.651-.425.982-.645-.16.09-.326.175-.506.245-.1-.27-.205-.54-.305-.804.125-.395.395-.55.801-.445.476-.17.952-.344 1.428-.504a3.19 3.19 0 0 1-.937 1.174 36.913 36.913 0 0 0 3.111-2.318c.2-.165.526-.18.797-.27.891-1.094 2.119-1.439 3.457-1.514.275-.165.55-.33.816-.494.17.76-.681 1.573.115 2.303l.727-.15c.581-.385 1.162-.764 1.743-1.134.216-.714.707-.844 1.313-.86 1.027-.684 2.044-1.378 3.02-2.137a2.419 2.419 0 0 1-.104-.225c.225-.07.45-.155.66-.215.056-.045.111-.08.166-.125 1.223-1.314 2.806-2.148 4.234-3.182 2.885-2.083 5.811-4.091 8.702-6.16.265-.19.5-.424.866-.394a.462.462 0 0 1-.015-.12c.146-.514.556-.81.952-1.114-.175.02-.34.02-.49-.03l-1.383 1.11v-.06c-.256.164-.511.639-.807.234-.26-.36.145-.594.456-.754l-.065-.02c.285-.475.721-.75 1.207-.944a.904.904 0 0 1-.045-.445c.306-.53.817-.904 1.142-1.409.276-.374.546-.75.827-1.119-.03-.63.165-1.119.822-1.324.956-1.278 2.219-2.203 3.557-3.037 3.056-2.468 5.951-5.145 9.749-6.509.37-.13.681-.414 1.022-.634a.29.29 0 0 1 .195.08c.25-.165.531-.24.827-.285.486-.27.952-.575 1.418-.88.05-.08.12-.15.21-.204.14-.105.29-.195.45-.245 1.524-1.064 2.997-2.213 4.635-3.092v.055c.195-.125.39-.25.581-.38.396-.03.787-.06 1.182-.08-.741.52-1.488 1.05-2.229 1.569.035-.08.065-.16.095-.24-.06.065-.11.14-.095.24-1.753 1.129-2.99 2.897-4.87 3.871-.085.22-.17.445-.26.67-.05.909-1.268.924-1.363 1.788.075.06.125.15.146.255l-.657.504a.644.644 0 0 0-.085.08c1.498-.025 2.39-1.383 3.727-1.773.266-.085.536-.165.807-.25 2.45-2.263 5.295-3.996 8.07-5.81 1.63-1.064 3.042-2.447 4.84-3.252a14.735 14.735 0 0 1 3.127-2.153c1.493-.959 2.785-2.237 4.463-2.902.04-.02.066-.04.106-.06h.045c.035-.01.075-.02.1-.03.03-.07.095-.095.22-.075.416-.045.396-.694.882-.65.842-.569 1.683-1.143 2.525-1.718.11.035.22.065.33.095l.05-.105.121.005c1.478-.959 2.87-2.053 4.439-2.857.21-.105.42-.2.626-.3.035-.105.105-.15.21-.13 5.416-3.926 10.982-7.618 16.643-11.17 1.293-.814 2.34-2.003 3.798-2.552.11-.05.225-.095.35-.115.356-.225.722-.46 1.082-.69.401-.324.812-.614 1.358-.619.641-.44 1.288-.874 1.929-1.314a.258.258 0 0 0 .26-.114c.351-.04.617-.29.952-.375.967-.754 1.984-1.399 3.041-1.998.531-.365 1.062-.72 1.593-1.09 1.153-.359 2.034-1.158 2.981-1.863.06-.14.126-.274.186-.42-.25.11-.526.17-.827.106-1.142.844-2.52 1.204-3.782 1.813-.286.19-.567.39-.857.585-.782.38-1.568.769-2.36 1.153.18-1.009 1.138-1.004 1.694-1.503 1.407-1 2.82-2.003 4.233-3.017.105 0 .175.05.2.14.762-.51 1.403-1.14 1.849-1.964.877.05 1.242-.64 1.718-1.169.321-.015.627.08.937.12.827-.444 1.643-.889 2.47-1.334.847-.41 1.338-1.558 2.54-1.238.35-.33.15.06.06.32.025-.046.05-.086.075-.13.481-.485.967-.98 1.453-1.46.19-.11.386-.21.576-.314-.24-1.639 1.383-1.579 2.13-2.333.465.36-.036.754.05 1.13.375-.22.756-.44 1.137-.66.115.15.23.31.346.46-.23.18-.466.369-.702.544.481.37 1.092.065 1.633.13.807-.43 1.624-.86 2.435-1.29 2.255-1.193 4.229-2.757 6.077-4.49a.803.803 0 0 0 .28-.305c-.74-.155-1.051 1.014-1.748.99.005.064.015.134.025.194-1.097.305-.29-.704-.636-.914h-.005c-.586.23-.962.904-1.839.84.15-.74.747-.92 1.233-1.195.556-.4 1.122-.794 1.673-1.194.596-.709 1.683-.779 2.17-1.638a.426.426 0 0 1-.16-.19l-.01-.015c-.647.46-1.293.914-2.11 1.489-.025-1.18.641-1.674 1.267-2.193.466-.33.937-.66 1.403-.994 1.769-1.704 4.033-2.688 6.002-4.117.741-.534 1.498-1.024 2.084-1.728.145-1.099.927-1.459 1.739-1.768.2-.135.43-.235.686-.27zM940.106 314.195a1.085 1.085 0 0 1-.098-.023c.002.001.004.003.004.01zm-24.778-22.318c.066-.075.126-.154.176-.234.195-.135.38-.29.57-.435-.3.155-.655.215-1.111.105a.84.84 0 0 1 .12.145c.05.12.04.235.015.344l.23.075zm2.39-1.26c.155-.528.39-1.017.621-1.515-.445.25-.886.508-1.337.753.025.05.045.104.07.17-.185.353-.4.667-.656.916.38-.249.786-.403 1.312-.279 0-.015-.01-.025-.01-.045zm11.378-8.576c0-.175.035-.33.105-.464-.22.125-.446.24-.652.37.176.004.361.04.547.094zm5.866-4.266c.36-.404.747-.754 1.162-1.074-.355.235-.726.465-1.127.635-.16.05-.33.09-.5.13.175.064.325.164.465.31zm1.724-1.463a6.617 6.617 0 0 1 2.029-.865h.065a.651.651 0 0 1 .04-.384c.145-.29.325-.535.53-.74-.245.08-.525.09-.836.005-.085.645-.601 1-1.027 1.41-.27.179-.53.379-.801.574zm3.807-2.648c.135-.045.276-.075.41-.105.106-.005.201-.015.296-.03.06-.125.14-.23.226-.33-.336.075-.631.26-.932.465zm31.397-19.677l.125-.095c.456-.35.902-.704 1.378-1.039.04-.44.245-.86.366-1.284-.862.65-1.809 1.17-2.67 1.819.135.12.28.244.42.374.125.075.25.15.38.225zm1.793-10.026c-.115.11-.255.2-.395.275.075-.005.16-.005.235-.01.236-.065.461-.15.676-.25a.985.985 0 0 1-.48-.05c-.016.01-.026.025-.036.035zm-16.823 12.37c-.01.05-.015.095-.035.144-.25.27-.54.39-.892.255.13.164.12.389.03.638.411-.32.757-.718 1.158-1.037a3.778 3.778 0 0 1-.226-.02c-.01.01-.02.02-.035.02zm1.037 1.617c-1.743.69-2.885 2.248-4.373 3.297.546-.194 1.097-.334 1.688-.11.04-.06.075-.12.115-.18.887-.874 1.974-1.513 2.88-2.357.592-.45 1.238-.84 1.814-1.314.411-.3.857-.54 1.318-.74.21-.639.867-.983 1.318-1.463l.345-.285c-.235.07-.49.065-.756-.03-.13.31-.37.52-.661.69-1.153.274-1.924 1.139-2.831 1.808-.366.12-.777.195-.857.684zm24.894-19.577a.77.77 0 0 1 .08-.44c-.28.09-.556.215-.841.315.265-.005.52.025.761.125zm-36.13 31.146c.42-.225.906-.31 1.452-.235 0-.005 0-.01-.005-.015-.04-.24 0-.463.11-.678.125-.114.246-.234.356-.364a28.35 28.35 0 0 0-1.663 1.112c-.075.065-.16.12-.25.18zm3.34-2.157c.066 0 .121-.01.191 0 .095.1.175.214.266.329.01-.04.01-.065.02-.105.09-.34.245-.598.45-.793-.31.19-.616.38-.926.569zm1.388-.85c.16-.065.336-.105.532-.124.01-.09.035-.18.065-.26-.196.13-.396.255-.597.384zm18.572-11.33c.376-.179.742-.389 1.097-.624-.416.13-.826.26-1.237.38 0 0-.015.01-.03.025.005.005.01.005.015.01.085.07.13.14.155.21zm8.241-6.514c.27-.17.546-.245.847-.17.17-.628.511-1.072.937-1.44-.957.657-1.954 1.266-2.82 2.048.175-.04.365-.06.56-.034l.146-.015c.105-.13.22-.255.33-.39zm3.823-2.998c.681-.334 1.247-.838 1.894-1.212.636-.324 1.207-.743 1.753-1.196a.843.843 0 0 1-.28-.27c-.642.42-1.288.843-1.934 1.262-.09.025-.186.055-.28.085-.176.17-.347.339-.497.533-.44.404-.902.788-1.368 1.167-.175.16-.37.314-.56.468.425-.279.876-.533 1.272-.837zm6.112-11.753c-.566 1.784-2.285 2.008-3.657 2.723-.126.015-.25.02-.376.02-.01.165-.06.32-.135.47 1.262.32 2.104-.905 3.211-1.14.065-.14.14-.28.21-.424.246-.41.597-.67 1.032-.83.11-.02.21-.04.311-.06.38-.614.942-1.028 1.623-1.313a1.086 1.086 0 0 1-.17-.74c-.36.345-.792.5-1.353.325.04.06.07.12.095.21-.12.53-.39.814-.961.604.055.04.11.09.17.155zm-19.273 13.278c-.33.105-.666.11-.987-.06-.015.005-.03.01-.04.015.05.03.095.08.135.145-.01.51-.235.84-.54 1.104.305-.075.615-.09.95.04l.016.015c.175-.405.346-.814.516-1.219.025-.035.055-.06.075-.095-.04.02-.08.04-.125.055zm-19.213 14.332c-.24.105-.466.25-.746.175.23.29.596-.05.871.075.06-.155.15-.29.256-.42-.125.055-.25.115-.381.17zm-17.555 17.51a.84.84 0 0 1-.49.703c.105.01.205.025.31.05h.02c.27-.26.556-.494.877-.658-.23.05-.456.064-.681-.04a.335.335 0 0 1-.036-.055zm-59.11 49.328c.164-.165.33-.32.55-.374.04 0 .07.01.105.01-.035-.304.055-.588.266-.848.045-.045.09-.074.13-.114-.326.18-.686.314-1.112.364-.01.005-.02.015-.03.02.1.094.175.224.22.368-.005.22-.055.404-.13.574zm1.527-1.647c.296-.145.611-.21.952-.15-.025-.445.09-.8.3-1.1-.405.435-.791.895-1.252 1.25zm2.555-2.388c.125-.06.25-.115.38-.145.056-.01.111-.015.161-.025 0-.125.015-.24.05-.345-.195.17-.39.345-.59.515zm2.746-2.393c.295-.08.62-.085.976.02a.332.332 0 0 1-.06-.1 1.55 1.55 0 0 1 .176-.794c-.371.29-.732.574-1.092.874zm48.335-28.959c.085-.095.195-.204.35-.329-.185.04-.35.11-.506.18.05.044.096.094.156.15zm63.87-36.896a.75.75 0 0 1 .17-.325c-.12.03-.245.045-.39.06-.125-.045-.255-.09-.376-.13-.13.185-.32.265-.56.265-.552-.08-1.053-.025-1.404.49-.08.12-.18.24-.27.354-.06.08-.115.15-.17.22.23.38.01.775-.22 1.164-.291.32-.752.395-1.063.685-.42.284-.827.594-1.232.849.36-.165.66-.48 1.037-.7.195-.14.385-.28.6-.4.176-.03.311.03.412.176 0 .015.005.025.005.04.57-.535 1.127-1.084 1.933-1.27 0-.13.036-.24.176-.334.47-.345.972-.654 1.413-1.034-.025-.04-.035-.075-.055-.11zm3.036-3.475c.276-.26.577-.513.872-.758-.03-.005-.065 0-.1-.005-1.378 1.117-3.096 1.815-4.203 3.276 0 .005 0 .01-.005.015.21-.165.41-.33.62-.494.186-.01.372-.015.552-.025.075.22.1.394.08.544.125-.165.19-.354.105-.649.496-.329.992-.653 1.493-.987.196-.304.391-.603.586-.917zm14.64-10.257c.09-.07.18-.135.27-.2-.175.06-.355.115-.55.145-.015 0-.025-.01-.04-.01-.065.035-.12.065-.18.105-.13.564-.63.844-1.056 1.178-.81.435-1.59.94-2.445 1.27-.005.29-.255.429-.505.524-.15.06-.345.15-.505.14-.03.344-.215.634-.415.914.3-.14.605-.28.905-.425 1.11-.794 2.22-1.588 3.34-2.383.356-.454.786-.844 1.18-1.258zm1.998-1.45c.561-.399 1.132-.798 1.704-1.193a2.165 2.165 0 0 0-.772.145c-.175.115-.35.245-.531.365-.14.16-.26.36-.34.619-.02.025-.04.04-.06.065zm6.062.695c.456-.314.917-.623 1.373-.918-.696.25-1.298.654-1.739 1.287-.015.015-.035.025-.045.04.146-.12.28-.255.411-.41zm15.616-8.832l-.065-.045a.66.66 0 0 1 0-.49c-.11-.034-.22-.07-.32-.11-.211.11-.422.23-.632.34-.742.41-1.368 1.02-2.2 1.29a3.835 3.835 0 0 0-.52-.04c-.12.12-.246.23-.366.344-.226-.125-.426-.18-.591-.18-.617.235-1.102.725-1.463 1.444-.366.38-.862.535-1.293.8-.6.339-1.127.819-1.783 1.078a.912.912 0 0 1-.516.03l-.166.08c.076.05.16.1.236.17-.01.13-.035.245-.08.355.285-.18.58-.36.871-.53.291-.11.582-.13.867-.01.06.04.115.09.16.135 1.248-.86 2.49-1.718 3.733-2.578.215-.224.41-.46.606-.714 1.057-.744 2.084-1.583 3.522-1.364zm4.864-6.024c.837-.7 1.774-1.264 2.65-1.903.622-.39 1.263-.75 1.72-1.274-.647.524-1.434.934-2.26 1.269a5.123 5.123 0 0 0-.506.214c-.055.125-.11.25-.17.375-.216.145-.442.195-.672.185-.13.1-.26.19-.386.28a6.313 6.313 0 0 1-1.217.679.687.687 0 0 1-.256.375c-.57.34-1.117.714-1.648 1.119-.852.22-1.237 1.698-2.39 1.104-.09.035-.19.065-.28.1-.216.424-.722.619-.967 1.049.436-.11.776-.415 1.217-.41.06.015.116.04.166.065.085-.035.18-.065.27-.1.1-.025.19-.055.28-.08.727-1.259 2.1-1.753 3.187-2.583.35-.14.691-.344 1.092-.29.055-.06.105-.12.17-.174zm5.421 3.838c-.691.378-1.383.757-2.059 1.146.446-.2.902-.399 1.363-.583.115-.04.225-.095.34-.15.096-.16.216-.289.356-.414zm3.973 2.867c.266-.374.641-.648 1.032-.902-.105.01-.205.01-.32-.01-.04.065-.096.12-.14.19-.467.333-1.003.543-1.529.762-.997.394-1.924.907-2.815 1.47-.01 0-.015 0-.02.006a.12.12 0 0 0-.04.03c-.406.264-.812.523-1.208.802-.074.051-.074.053-.061.046l-.054.034c.03.015.04-.02.08-.035.481-.2.832-.568 1.242-.847.02-.015.04-.025.06-.035.281-.095.547-.24.837-.304.541-.14.962-.489 1.433-.758a2.61 2.61 0 0 1 .691-.28c.246-.064.511-.104.767-.154.015 0 .03-.01.045-.015zm9.283-23.148c.07-.065.13-.12.2-.17-.044.015-.084.04-.13.06-1.332.589-2.43 1.52-3.597 2.348.12-.054.236-.114.351-.174.28-.185.566-.374.842-.573.42-.285.816-.644 1.312-.768.146-.11.286-.22.421-.34.2-.129.4-.258.601-.383zm1.994-1.416c.13-.13.146-.25.025-.37-.11.235-.28.345-.546.29.015.04.035.08.05.125-.095.34-.315.58-.586.784.12-.06.25-.115.376-.17.09.01.175.016.265.026.01 0 .02-.005.03-.01l-.01.01c0 .015.005.024.015.034.015-.3.18-.514.381-.719z"/></g></g><g><path fill="#ffe030" d="M1061.807 229.402c-.792.162-1.444.557-2.044 1.044-.807.517-1.626 1.034-2.434 1.556-1.193.208-2.054.963-3 1.597-1.178.796-2.258 1.764-3.762 2.037-.417-.07-.765.076-1.09.315a1.328 1.328 0 0 0-.477.669c.182.69.76.203 1.123.34.514-.117.824-.634 1.386-.655l-.032-.005c.92-.268 1.268-1.302 2.236-1.515 1.113-.857 2.557-1.333 3.327-2.585.118.03.193.01.236-.036 2.29-.37 4.034-1.683 5.724-3.076-.487-.213-.867-.01-1.193.314"/></g><g><path fill="#ffe030" d="M1066.006 215.998c-.004.004-.008.004-.012.004z"/></g><g><path fill="#ffe030" d="M1025.77 227.833c-.18.37-.238.804-.59 1.094-.202.1-.398.207-.6.313-.26.106-.497.236-.58.506.43.453.813.212 1.222-.043.999-.666 1.998-1.311 3.002-1.962.973-.626 1.952-1.258 2.925-1.89.103-.067.202-.124.305-.182.249-.15.513-.299.777-.444 1.113-.366 2.06-.968 2.769-1.874-.331-.815-.616.048-.927.024-.258.52-.843.42-1.289.597l-2.93 1.86c.13 0 .26 0 .394.005-.135.073-.27.097-.393-.004l-3.267 1.46c-.269.178-.543.361-.818.54"/></g><g><path fill="#ffe030" d="M1036.13 221.424c-.02.028.087.196.131.192.74-.048 1.252-.42 1.612-1.232-.856.112-1.372.468-1.744 1.04"/></g><g><path fill="#ffe030" d="M960.568 271.33c.432-.016.712-.236.864-.628-.52-.116-.816.088-.864.628"/></g></g><g clip-path="url(#xoyma)" opacity=".09"><g opacity=".09"><path fill="#fff" d="M309.334 535.126c1.767-1.33 1.987-3.41 1.318-5.54-.497-1.27-.879-2.611-1.786-3.656-2.694-1.646-4.948-4.16-8.52-3.913-3.84.286-5.78 3.075-7.27 6.022-.86 1.705-1.977 4.652.134 5.855 2.015 1.143 3.811 2.74 6.027 3.548 3.86 1.42 7.116-.059 10.097-2.316"/></g><g opacity=".09"><path fill="#fff" d="M157.221 601.583c2.018-5.268.068-9.711-5.296-12.038-3.579-1.896-7.817 1.494-9.815 4.98-.854 1.503 3.491 9.327 5.528 10.237 2.183.977 8.836-1.245 9.583-3.18"/></g><g opacity=".09"><g opacity=".09"/><g clip-path="url(#xoymf)" opacity=".09"><path fill="#2a2a2a" d="M96.504 569.368c3.467-2.736 3.506-8.284.095-12.293l.01.057c-2.68-3.781-6.745-2.755-10.45-3.002-1.33.19-1.217 1.34-1.502 2.223-.588.342-1.187.665-1.776.988-1.9 1.169-1.776 3.107-1.881 4.95.266.532.513 1.054.76 1.586-.827 3.325.817 5.729 3.467 7.078 2.946 1.51 8.532 2.194 11.277-1.587"/></g></g><g opacity=".09"><g opacity=".09"/><g clip-path="url(#xoymg)" opacity=".09"><path fill="#2a2a2a" d="M224.55 631.593c-1.18 2.64.676 6.536 3.653 7.695 3.722 1.453 7.511.617 8.42-1.853.84-2.299-1.663-8.17-3.876-9.063-2.446-.988-7.154.855-8.198 3.22"/></g></g><g opacity=".09"><path fill="#fff" d="M217.767 573.698c-.523.642-1.056 1.305-1.58 1.948-2.971 3.619.356 6.002 2.143 8.049 1.64 1.889 4.434 3.59 7.198.94 2.953-2.265 2.992-5.064 1.52-8.159-1.55-4.697-5.311-5.824-9.28-2.778"/></g><g opacity=".09"><path fill="#fff" d="M179.968 619.914c3.19.612 7.837-2.158 8.8-4.964.885-2.621-.817-5.65-4.172-7.42-2.304-1.213-7.01-.24-8.907 1.844-1.857.519-2.042 1.695-1.235 3.121.778 1.38 1.683 2.686 2.529 4.039.077-.019.145-.047.204-.074 0 .018-.01.027-.02.055l-.184.019c-.487 2.306 1.273 3.047 2.985 3.38"/></g><g opacity=".09"><path fill="#fff" d="M243 554.784c.13.863.251 1.727.372 2.6-.949 2.807 2.001 3.414 2.913 3.443 2.27.066 5.212.939 6.663-1.973.8-1.594 1.778-3.292.242-5.132-1.703-2.04-3.238-4.326-6.384-3.576-2.373.56-3.424 2.324-3.806 4.638"/></g><g opacity=".09"><path fill="#fff" d="M136.308 560.182c1.391-2.545.549-5.545-1.316-7.002-1.76-1.36-4.714-2.01-6.71.67-.73.835-1.638 1.622-1.014 2.943-1.098 3.04 1.42 4.302 3.124 4.778 1.836.524 4.6 1.01 5.916-1.39"/></g><g opacity=".09"><path fill="#fff" d="M193.99 595.317c-.91 2.55 1.45 3.29 2.5 4.61 1.56.5 2.97.65 3.52-1.06.65-2.05-.32-3.79-2.06-4.61-1.26-.6-3.19-1.11-3.96 1.06"/></g><g opacity=".09"><g opacity=".09"/><g clip-path="url(#xoymh)" opacity=".09"><path fill="#fff391" d="M241.197 502.664c.288-.115.566-.24.864-.365 1.21 1.133 2.246.202 3.331-.288.182.192.365.192.547 0 2.064-.826 3.581-2.237 4.57-4.224.681-.49 1.363-.98 2.035-1.478.442-.02 1.104.115 1.277-.106 2.189-2.842 5.251-5.309 3.936-9.648-.5-1.642-.874-3.37-.547-5.136-2.247-6.317-5.482-11.827-11.78-14.947-7.91-4.704-17.01-1.575-23.347 3.782-5.26 4.474-5.078 10.771-4.8 16.56.163 3.35.845 7.651 4.771 9.706 3.36 4.339 8.439 5.597 13.287 6.749 1.526.345 4.051.825 5.856-.605"/></g></g><g opacity=".09"><path fill="#b9d5ed" d="M290.428 504c1.764.279 3.602.344 5.3.892 3.678 1.188 3.557 4.987 4.182 7.69.644 2.702-2.296 3.993-4.704 4.885-.989 1.114-2.156.111-3.229.269-1.708.706-2.688-.446-3.742-1.449-1.083-1.709-3.155-2.888-2.921-5.322zm-2.893 3.997c.084.028.177.065.252.093a2.09 2.09 0 0 1 1.092-.464 1.169 1.169 0 0 1-.168-.529z"/></g><g opacity=".09"><path fill="#fff" d="M106.128 592.556c.42-1.14.53-2.26-.91-2.63-1.5-.4-2.71.55-3.37 1.62-.83 1.33.58 1.87 1.51 2.34 1.42.71 2.29.01 2.77-1.33"/></g><g opacity=".09"><path fill="#fff" d="M328.616 483.927c3.385-1.382 5.476-3.614 5.38-7.633-.066-3.188-.436-6.087-3.573-7.74-2.71-1.97-5.647-1.786-8.65-.985-.942-.106-1.826.03-2.663.493-3.06 1.681-4.068 5.42-2.09 7.807-.048.406-.03.782.455.918-.057 2.618 1.807 3.835 3.584 5.12 1.977 2.725 4.867 2 7.557 2.02"/></g><g opacity=".09"><path fill="#fff" d="M178.549 572.446c2.302.539 6.13 1.242 8.874-.924.422-.183.864-.365 1.295-.548 1.842 1.713 3.416.308 5.047-.433.288.288.556.279.834-.02 3.138-1.24 5.43-3.397 6.927-6.409 1.027-.75 2.063-1.5 3.09-2.242.661-.048 1.669.183 1.928-.163 3.329-4.321 7.982-8.074 5.967-14.676-.758-2.483-1.324-5.12-.825-7.805-3.396-9.604-8.327-17.986-17.873-22.72-11.964-7.16-25.77-2.406-35.363 5.755-7.982 6.784-7.695 16.36-7.282 25.165.24 5.1 1.276 11.634 7.234 14.762 5.085 6.601 12.779 8.516 20.147 10.258"/></g></g></g><g><g><path fill="#2a2a2a" d="M44.936 14.942c-.904-1.067-2.214-1.143-3.528-.65-.776.366-1.602.646-2.227 1.264-.936 1.743-2.432 3.255-2.145 5.504.31 2.41 2.136 3.549 4.039 4.376 1.1.493 2.99 1.09 3.665-.276.648-1.312 1.583-2.508 2.012-3.926.749-2.486-.297-4.496-1.816-6.292"/></g><g><path fill="#2a2a2a" d="M26.001 59.616c.674-.803.054-1.437-.296-2.093.112-.124.103-.236-.027-.343-.588-1.272-1.54-2.178-2.832-2.73-.337-.411-.674-.817-1.01-1.232-.032-.273.04-.697-.112-.8-1.877-1.284-3.551-3.127-6.258-2.137-1.014.37-2.1.665-3.232.523-3.918 1.633-7.303 3.873-9.054 7.951-2.702 5.14-.4 10.763 3.223 14.564 3.017 3.16 7.003 2.82 10.666 2.446 2.118-.219 4.812-.8 5.979-3.351 2.63-2.263 3.254-5.502 3.802-8.608.18-.973.381-2.579-.584-3.663-.085-.179-.175-.353-.265-.527"/></g><g><path fill="#2a2a2a" d="M18.497 58.5h.005"/></g><g><path fill="#2a2a2a" d="M33.824 26.104c.51 1.092-.19 1.783-.805 2.5-1.063.781-1.754 2.18-3.339 2.117-2.108.849-3.772-.257-4.68-3.096.12-1.169.093-2.378.385-3.511.642-2.447 3.095-2.51 4.822-3.029 1.722-.51 2.665 1.372 3.325 2.916zm-6.079 3.1a1.416 1.416 0 0 1-.345-.69 1.044 1.044 0 0 1-.337.122c.129.316.32.578.625.736z"/></g><g><g/><g clip-path="url(#xoymi)"><path fill="#2a2a2a" d="M6.133 11.288c.266.014.509-.013.583-.328C8.43 10.9 9.157 9.664 9.936 8.47l-.004.005c1.708-1.368 1.134-3.186 1.045-4.914C9.946 1.442 8.41.169 5.783.37 3.697.529 1.816.88.846 2.945c-1.19 1.8-.957 3.681-.322 5.58-.038.608.088 1.17.42 1.688 1.208 1.912 3.7 2.42 5.189 1.075"/></g></g><g><path fill="#b9d5ed" d="M92.586 110.357c-3.349-1.071-6.051.297-7.318 3.698-1.057 2.28 1.205 4.782 3.441 5.893.964.478 5.69-2.48 6.188-3.781.528-1.377-1.079-5.42-2.31-5.81"/></g><g><g/><g clip-path="url(#xoymj)"><path fill="#b9d5ed" d="M74.126 150.417c-1.946-2.208-5.647-2.03-8.19.392l.037-.014c-2.413 1.932-1.577 4.606-1.605 7.079.172.873.933.76 1.54.91.238.383.48.765.718 1.148.85 1.223 2.133 1.064 3.36 1.064.341-.187.686-.369 1.027-.565 2.25.434 3.79-.746 4.592-2.566.891-2.016 1.143-5.764-1.48-7.448"/></g></g><g><path fill="#b9d5ed" d="M113.091 58.07c-1.585-.446-5.441 1.334-5.96 2.745-.576 1.566.84 4.45 2.468 5.02 1.822.639 4.375-.656 5.045-2.566.84-2.378.142-4.717-1.553-5.199"/></g><g><path fill="#b9d5ed" d="M73.703 66.71c-2.963 1.108-3.554 3.439-1.456 5.761.442.298.878.6 1.32.903 2.426 1.682 3.844-.431 5.098-1.584 1.154-1.072 2.15-2.829.342-4.435-1.558-1.717-3.37-1.65-5.304-.645"/></g><g><path fill="#b9d5ed" d="M100.237 89.104c-1.839-.483-3.865.753-4.956 3.035-.753 1.572.084 4.63 1.594 5.81.428 1.202 1.237 1.283 2.191.696.917-.569 1.787-1.212 2.68-1.828-.009-.052-.032-.09-.051-.128.01.005.023.005.033.01l.018.118c1.609.237 2.055-.957 2.225-2.098.3-2.135-1.773-5.094-3.734-5.615"/></g><g><path fill="#b9d5ed" d="M59.236 56c.554-.104 1.104-.213 1.654-.317 1.828.504 2.105-1.396 2.091-1.97-.04-1.44.407-3.331-1.501-4.149-1.046-.452-2.168-1.013-3.285.022-1.243 1.152-2.646 2.2-2.056 4.166.447 1.483 1.613 2.091 3.097 2.248"/></g><g><path fill="#b9d5ed" d="M65.046 130.82c1.872.647 2.546-1.154 2.783-2.36.247-1.3.445-3.243-1.05-4.075-1.577-.876-3.362-.16-4.17 1.183-.764 1.28-1.058 3.363.631 4.658.532.477 1.024 1.08 1.806.594"/></g><g><path fill="#b9d5ed" d="M87.481 86.603c1.76.52 2.17-1.11 3.025-1.87.29-1.085.33-2.035-.85-2.34-1.41-.37-2.56.35-3.05 1.56-.365.88-.63 2.205.875 2.65"/></g><g><path fill="#b9d5ed" d="M88.818 143.029c-.795-.24-1.55-.28-1.755.715-.215 1.045.48 1.82 1.235 2.23.93.505 1.245-.47 1.525-1.12.425-.985-.075-1.54-1.005-1.825"/></g><g><path fill="#b9d5ed" d="M67.99 110.488c4.009-3.49 4.949-8.472 5.79-13.252.26-1.489.571-3.96-.895-5.634-.135-.272-.266-.539-.4-.806 1.02-1.244.076-2.2-.45-3.218.166-.194.153-.37-.036-.53-.905-1.959-2.344-3.348-4.314-4.208-.513-.625-1.021-1.258-1.53-1.887-.05-.426.059-1.078-.166-1.231-2.861-1.974-5.403-4.811-9.519-3.29-1.543.565-3.194 1.027-4.912.81-5.96 2.511-11.102 5.955-13.765 12.224-4.107 7.906-.603 16.564 4.903 22.407 4.584 4.865 10.643 4.34 16.208 3.765 3.216-.334 7.314-1.23 9.087-5.15"/></g></g></g></svg>